<?xml version="1.0" standalone="no"?>
<!DOCTYPE svg PUBLIC "-//W3C//DTD SVG 20010904//EN"
 "http://www.w3.org/TR/2001/REC-SVG-20010904/DTD/svg10.dtd">
<svg version="1.0" xmlns="http://www.w3.org/2000/svg"
 width="352.000000pt" height="111.000000pt" viewBox="0 0 352.000000 111.000000"
 preserveAspectRatio="xMidYMid meet">

<g transform="translate(0.000000,111.000000) scale(0.100000,-0.100000)"
fill="#000000" stroke="none">
<path d="M804 1043 c26 -108 23 -103 70 -103 43 0 44 1 50 38 4 20 9 49 12 65
l6 27 -72 0 -72 0 6 -27z m48 -65 c-6 -6 -12 -4 -16 7 -3 9 -2 13 4 10 6 -3
10 0 11 7 0 10 2 10 6 0 3 -8 1 -18 -5 -24z"/>
<path d="M317 863 c-4 -3 -7 -64 -7 -134 0 -141 -1 -139 70 -139 28 0 40 5 43
18 4 16 5 16 6 -1 1 -16 10 -18 64 -17 106 3 116 1 127 -21 9 -16 8 -26 -5
-45 -15 -24 -18 -24 -160 -24 l-145 0 0 -45 0 -44 695 0 c673 0 695 0 705 19
6 10 10 91 10 186 l0 167 37 -6 c20 -4 40 -12 45 -19 4 -7 8 -89 8 -181 l0
-168 48 3 47 3 3 183 c2 181 3 182 25 182 12 0 33 -7 45 -16 21 -15 22 -21 22
-179 0 -162 0 -165 23 -170 12 -3 85 -4 162 -3 l140 3 3 43 3 42 -104 0 c-142
0 -138 -6 -138 193 1 113 -3 158 -12 165 -8 7 -94 11 -235 11 l-222 -1 0 -137
c0 -96 4 -141 13 -150 10 -11 10 -13 0 -7 -9 5 -13 -2 -13 -23 0 -39 -23 -51
-93 -51 -80 0 -81 4 -87 199 l-5 166 -177 3 -178 2 0 -45 0 -45 108 0 c129 0
150 -5 158 -36 12 -47 -7 -54 -143 -54 -68 0 -133 -5 -144 -10 -16 -9 -19 -22
-19 -85 0 -80 -3 -84 -61 -95 -33 -6 -38 -4 -48 17 -7 14 -11 91 -11 188 l0
165 -45 0 -46 0 1 -137 c1 -200 1 -200 -16 -217 -9 -9 -32 -16 -55 -16 l-39 0
0 85 c0 73 -3 86 -19 95 -11 5 -78 10 -148 10 -137 0 -153 5 -153 47 0 35 34
43 186 43 l134 0 0 45 0 45 -198 0 c-109 0 -202 -3 -205 -7z m299 -50 c-3 -4
-6 -1 -6 7 0 10 -3 10 -15 0 -12 -10 -15 -9 -15 4 0 10 5 14 10 11 6 -3 10 0
10 7 0 8 5 6 11 -5 6 -10 8 -21 5 -24z m541 -10 c-3 -10 -5 -2 -5 17 0 19 2
27 5 18 2 -10 2 -26 0 -35z m-702 27 c3 -5 1 -10 -4 -10 -6 0 -11 5 -11 10 0
6 2 10 4 10 3 0 8 -4 11 -10z m1375 -11 c0 -6 -4 -7 -10 -4 -5 3 -10 11 -10
16 0 6 5 7 10 4 6 -3 10 -11 10 -16z m67 -1 c-3 -8 -6 -5 -6 6 -1 11 2 17 5
13 3 -3 4 -12 1 -19z m134 13 c6 10 8 8 7 -7 -2 -27 -28 -27 -27 0 0 13 3 16
6 7 5 -11 7 -11 14 0z m36 -23 c-3 -7 -5 -2 -5 12 0 14 2 19 5 13 2 -7 2 -19
0 -25z m-850 4 c1 -10 -4 -19 -11 -19 -8 0 -11 8 -8 19 2 10 7 18 11 18 4 0 7
-8 8 -18z m80 12 c-3 -3 -12 -4 -19 -1 -8 3 -5 6 6 6 11 1 17 -2 13 -5z m-427
-34 c6 -11 8 -20 6 -20 -3 0 -10 9 -16 20 -6 11 -8 20 -6 20 3 0 10 -9 16 -20z
m775 1 c3 -5 1 -12 -5 -16 -5 -3 -10 1 -10 9 0 18 6 21 15 7z m212 -73 c-3 -8
-6 -5 -6 6 -1 11 2 17 5 13 3 -3 4 -12 1 -19z m-976 -12 c15 9 10 -2 -6 -16
-13 -10 -15 -9 -14 11 0 13 3 18 6 11 2 -6 9 -10 14 -6z m790 -6 c7 23 7 23 6
-6 -1 -28 -3 -30 -19 -20 -10 6 -18 20 -17 31 0 17 2 17 11 -5 l11 -25 8 25z
m-284 -42 c-3 -7 -5 -2 -5 12 0 14 2 19 5 13 2 -7 2 -19 0 -25z m-960 0 c-3
-8 -6 -5 -6 6 -1 11 2 17 5 13 3 -3 4 -12 1 -19z m153 12 c0 -5 -5 -10 -11
-10 -5 0 -7 5 -4 10 3 6 8 10 11 10 2 0 4 -4 4 -10z m507 -37 c-3 -10 -5 -4
-5 12 0 17 2 24 5 18 2 -7 2 -21 0 -30z m-607 12 c-7 -8 -17 -15 -22 -15 -11
0 14 29 26 30 5 0 3 -7 -4 -15z m643 -12 c-3 -7 -6 -13 -8 -13 -2 0 -5 6 -8
13 -3 8 1 14 8 14 7 0 11 -6 8 -14z m546 -44 c-12 -7 -12 -9 0 -9 8 0 12 -3 8
-6 -10 -10 -26 6 -21 21 4 8 11 12 16 9 6 -4 5 -10 -3 -15z m-331 -11 c18 -18
14 -56 -7 -68 -11 -5 -34 -10 -51 -10 -29 0 -30 -2 -27 -35 2 -19 0 -32 -4
-29 -5 3 -9 19 -9 35 0 29 -2 30 -34 28 -19 -2 -41 3 -50 10 -16 13 -22 62 -9
74 12 12 178 8 191 -5z m-251 -45 c-3 -10 -5 -4 -5 12 0 17 2 24 5 18 2 -7 2
-21 0 -30z m323 15 c0 -6 -6 -5 -15 2 -8 7 -15 14 -15 16 0 2 7 1 15 -2 8 -4
15 -11 15 -16z m-303 -20 c-3 -7 -5 -2 -5 12 0 14 2 19 5 13 2 -7 2 -19 0 -25z
m953 12 c0 -11 -5 -20 -11 -20 -5 0 -7 5 -3 11 3 6 0 15 -7 20 -11 7 -10 9 4
9 10 0 17 -8 17 -20z m-403 -32 c-3 -8 -6 -5 -6 6 -1 11 2 17 5 13 3 -3 4 -12
1 -19z m557 -56 c2 -18 -1 -32 -5 -32 -5 0 -9 17 -9 37 0 43 8 40 14 -5z
m-1807 -4 c-3 -7 -5 -2 -5 12 0 14 2 19 5 13 2 -7 2 -19 0 -25z m20 0 c-3 -7
-5 -2 -5 12 0 14 2 19 5 13 2 -7 2 -19 0 -25z m502 2 c11 -22 10 -23 -2 -8 -8
10 -17 15 -21 11 -4 -4 -4 1 0 10 7 20 7 20 23 -13z m165 13 c-5 -5 -12 -12
-16 -18 -4 -6 -8 -2 -8 8 0 9 7 17 17 17 9 0 12 -3 7 -7z m33 -25 c-3 -7 -5
-2 -5 12 0 14 2 19 5 13 2 -7 2 -19 0 -25z m948 7 c0 -14 -3 -25 -7 -25 -5 0
-8 11 -8 25 0 14 3 25 8 25 4 0 7 -11 7 -25z m85 -19 c0 -12 -5 -7 -19 24 -11
24 -11 24 3 6 9 -11 16 -24 16 -30z m-1326 18 c3 -8 2 -12 -4 -9 -6 3 -10 10
-10 16 0 14 7 11 14 -7z m447 -7 c-10 -9 -11 -8 -5 6 3 10 9 15 12 12 3 -3 0
-11 -7 -18z m76 1 c-3 -8 -6 -5 -6 6 -1 11 2 17 5 13 3 -3 4 -12 1 -19z m33 7
c0 -8 -4 -15 -10 -15 -5 0 -7 7 -4 15 4 8 8 15 10 15 2 0 4 -7 4 -15z m17 -7
c-3 -8 -6 -5 -6 6 -1 11 2 17 5 13 3 -3 4 -12 1 -19z"/>
<path d="M2810 705 c0 -96 -4 -175 -10 -186 -10 -17 -22 -19 -110 -19 -54 0
-101 4 -105 9 -3 5 22 82 55 171 33 88 60 165 60 170 0 6 -20 10 -44 10 -45 0
-45 0 -64 -52 -11 -29 -37 -106 -57 -171 -21 -65 -41 -115 -45 -110 -4 4 -32
81 -61 171 l-54 162 -47 0 c-48 0 -48 0 -42 -27 11 -43 122 -344 142 -383 l17
-35 368 -3 367 -2 0 190 0 190 40 0 40 0 0 40 0 41 -117 -3 -118 -3 -3 -37 -3
-38 40 0 41 0 1 -102 c1 -133 -1 -160 -13 -175 -13 -16 -164 -18 -173 -2 -4 6
-8 88 -9 182 l-1 172 -47 3 -48 3 0 -166z m278 128 c-21 -5 -23 -19 -5 -26 9
-4 9 -6 0 -6 -15 -1 -26 16 -18 29 3 6 14 9 23 9 15 -1 15 -2 0 -6z m-471 -55
c-3 -8 -6 -5 -6 6 -1 11 2 17 5 13 3 -3 4 -12 1 -19z m243 1 c0 8 2 12 5 9 3
-3 2 -13 -1 -23 -7 -17 -8 -17 -21 1 -7 10 -13 22 -13 28 0 5 7 1 15 -10 10
-13 14 -15 15 -5z m-485 -71 c6 -4 2 -8 -7 -8 -10 0 -18 7 -18 17 0 9 3 12 8
7 4 -5 12 -12 17 -16z m227 -40 c-7 -7 -12 -8 -12 -2 0 14 12 26 19 19 2 -3
-1 -11 -7 -17z m249 -8 c6 0 7 5 4 10 -3 6 -2 10 3 10 5 0 9 -14 9 -30 0 -17
-4 -26 -8 -19 -4 6 -12 8 -18 5 -7 -5 -11 3 -10 21 0 15 3 22 6 16 2 -7 9 -13
14 -13z m-434 -32 c-3 -8 -6 -5 -6 6 -1 11 2 17 5 13 3 -3 4 -12 1 -19z m123
-82 c0 -3 -4 -8 -10 -11 -5 -3 -10 -1 -10 4 0 6 5 11 10 11 6 0 10 -2 10 -4z
m630 -18 c0 -7 -4 -19 -8 -26 -6 -9 -12 -6 -20 13 -10 22 -9 25 8 25 11 0 20
-6 20 -12z m-463 -90 c-3 -7 -5 -2 -5 12 0 14 2 19 5 13 2 -7 2 -19 0 -25z
m345 23 c8 11 9 11 6 1 -4 -16 -22 -18 -24 -2 -2 7 -1 6 3 -1 4 -8 8 -7 15 2z
m95 -13 c-3 -8 -6 -5 -6 6 -1 11 2 17 5 13 3 -3 4 -12 1 -19z m20 0 c-3 -8 -6
-5 -6 6 -1 11 2 17 5 13 3 -3 4 -12 1 -19z m-580 -10 c-3 -8 -6 -5 -6 6 -1 11
2 17 5 13 3 -3 4 -12 1 -19z m20 0 c-3 -8 -6 -5 -6 6 -1 11 2 17 5 13 3 -3 4
-12 1 -19z m140 0 c-3 -8 -6 -5 -6 6 -1 11 2 17 5 13 3 -3 4 -12 1 -19z"/>
<path d="M1050 270 c0 -27 5 -50 10 -50 6 0 10 23 10 50 0 28 -4 50 -10 50 -5
0 -10 -22 -10 -50z"/>
<path d="M1218 298 c-2 -13 -1 -39 3 -58 5 -30 7 -26 8 23 1 58 -4 74 -11 35z"/>
<path d="M1613 270 c0 -30 2 -43 4 -27 2 15 2 39 0 55 -2 15 -4 2 -4 -28z"/>
<path d="M1878 298 c-2 -13 -1 -36 3 -53 5 -24 7 -20 8 23 1 54 -4 68 -11 30z"/>
<path d="M2223 270 c0 -30 2 -43 4 -27 2 15 2 39 0 55 -2 15 -4 2 -4 -28z"/>
<path d="M2416 270 c1 -70 14 -76 14 -7 0 31 -3 57 -7 57 -5 0 -8 -23 -7 -50z"/>
<path d="M2500 312 c0 -14 41 -94 46 -89 5 5 -33 97 -41 97 -3 0 -5 -4 -5 -8z"/>
<path d="M2586 268 c9 -71 14 -73 14 -5 0 33 -4 57 -10 57 -7 0 -8 -19 -4 -52z"/>
<path d="M2748 283 c6 -65 10 -70 11 -15 0 28 -3 52 -7 52 -4 0 -6 -17 -4 -37z"/>
<path d="M1980 306 c0 -13 41 -98 45 -94 7 7 -28 98 -37 98 -4 0 -8 -2 -8 -4z"/>
<path d="M310 292 c0 -5 16 -22 35 -36 19 -15 35 -23 35 -18 0 5 -16 22 -35
36 -19 15 -35 23 -35 18z"/>
<path d="M833 255 c0 -27 2 -38 4 -22 2 15 2 37 0 50 -2 12 -4 0 -4 -28z"/>
<path d="M1398 293 c-2 -5 -1 -26 3 -48 l6 -40 2 48 c1 44 -3 57 -11 40z"/>
<path d="M660 256 c0 -19 3 -37 8 -39 4 -3 7 12 7 34 0 21 -3 39 -7 39 -5 0
-8 -15 -8 -34z"/>
<path d="M2703 255 c0 -22 2 -30 4 -17 2 12 2 30 0 40 -3 9 -5 -1 -4 -23z"/>
<path d="M3087 258 c8 -46 13 -48 13 -5 0 21 -4 37 -10 37 -5 0 -7 -14 -3 -32z"/>
<path d="M441 273 c0 -4 4 -17 9 -28 8 -19 9 -19 9 2 1 12 -3 25 -9 28 -5 3
-10 3 -9 -2z"/>
<path d="M553 245 c0 -22 2 -30 4 -17 2 12 2 30 0 40 -3 9 -5 -1 -4 -23z"/>
<path d="M717 245 c9 -19 19 -33 21 -30 7 7 -19 65 -29 65 -5 0 -1 -16 8 -35z"/>
<path d="M918 253 c5 -21 7 -23 10 -9 2 10 0 22 -6 28 -6 6 -7 0 -4 -19z"/>
<path d="M955 250 c0 -16 3 -30 8 -30 4 0 7 14 7 30 0 17 -3 30 -7 30 -5 0 -8
-13 -8 -30z"/>
<path d="M1103 245 c0 -22 2 -30 4 -17 2 12 2 30 0 40 -3 9 -5 -1 -4 -23z"/>
<path d="M1138 250 c2 -16 6 -30 8 -30 2 0 4 14 4 30 0 17 -4 30 -8 30 -5 0
-7 -13 -4 -30z"/>
<path d="M1260 245 c0 -19 4 -35 8 -35 4 0 6 16 4 35 -2 19 -6 35 -8 35 -2 0
-4 -16 -4 -35z"/>
<path d="M1302 250 c0 -19 2 -27 5 -17 2 9 2 25 0 35 -3 9 -5 1 -5 -18z"/>
<path d="M1441 248 c2 -30 2 -30 6 -6 2 15 12 29 21 31 12 3 10 5 -5 6 -20 1
-23 -4 -22 -31z"/>
<path d="M1490 250 c0 -16 4 -30 8 -30 5 0 7 14 4 30 -2 17 -6 30 -8 30 -2 0
-4 -13 -4 -30z"/>
<path d="M1572 250 c0 -19 2 -27 5 -17 2 9 2 25 0 35 -3 9 -5 1 -5 -18z"/>
<path d="M1722 250 c0 -19 2 -27 5 -17 2 9 2 25 0 35 -3 9 -5 1 -5 -18z"/>
<path d="M1763 245 c0 -22 2 -30 4 -17 2 12 2 30 0 40 -3 9 -5 -1 -4 -23z"/>
<path d="M1798 245 c2 -19 6 -35 8 -35 2 0 4 16 4 35 0 19 -4 35 -8 35 -4 0
-6 -16 -4 -35z"/>
<path d="M2063 230 c0 -30 2 -43 4 -27 2 15 2 39 0 55 -2 15 -4 2 -4 -28z"/>
<path d="M2103 255 c7 -13 14 -20 15 -14 5 14 -6 39 -17 39 -5 0 -4 -11 2 -25z"/>
<path d="M2134 271 c3 -5 15 -7 26 -4 17 4 20 0 20 -23 1 -25 2 -27 11 -11 16
28 3 47 -31 47 -17 0 -29 -4 -26 -9z"/>
<path d="M2660 251 c0 -16 5 -33 10 -36 6 -4 10 6 10 24 0 16 -4 33 -10 36 -6
4 -10 -6 -10 -24z"/>
<path d="M2788 245 c2 -19 6 -35 8 -35 2 0 4 16 4 35 0 19 -4 35 -8 35 -4 0
-6 -16 -4 -35z"/>
<path d="M2898 250 c2 -16 6 -30 8 -30 2 0 4 14 4 30 0 17 -4 30 -8 30 -5 0
-7 -13 -4 -30z"/>
<path d="M2938 245 c2 -19 6 -35 8 -35 2 0 4 16 4 35 0 19 -4 35 -8 35 -4 0
-6 -16 -4 -35z"/>
<path d="M2978 245 c2 -19 6 -35 8 -35 2 0 4 16 4 35 0 19 -4 35 -8 35 -4 0
-6 -16 -4 -35z"/>
<path d="M3052 250 c0 -19 2 -27 5 -17 2 9 2 25 0 35 -3 9 -5 1 -5 -18z"/>
<path d="M3133 245 c0 -22 2 -30 4 -17 2 12 2 30 0 40 -3 9 -5 -1 -4 -23z"/>
<path d="M395 260 c-3 -5 -1 -18 4 -27 9 -16 10 -14 11 10 0 28 -5 34 -15 17z"/>
<path d="M593 246 c1 -16 9 -32 17 -34 12 -4 13 -2 4 9 -7 8 -14 23 -17 34 -4
13 -5 9 -4 -9z"/>
<path d="M1330 265 c0 -3 9 -14 20 -25 12 -12 20 -15 20 -7 0 7 -9 18 -20 25
-11 7 -20 10 -20 7z"/>
<path d="M2303 246 c1 -16 9 -32 17 -34 12 -4 13 -2 4 9 -7 8 -14 23 -17 34
-4 13 -5 9 -4 -9z"/>
<path d="M3173 246 c1 -16 9 -32 17 -34 12 -4 13 -2 4 9 -7 8 -14 23 -17 34
-4 13 -5 9 -4 -9z"/>
<path d="M3240 262 c0 -4 9 -15 20 -25 14 -11 20 -13 20 -4 0 7 -9 18 -20 25
-11 7 -20 9 -20 4z"/>
<path d="M870 246 c0 -8 4 -17 9 -20 5 -4 7 3 4 14 -6 23 -13 26 -13 6z"/>
<path d="M1170 248 c0 -9 7 -22 17 -29 15 -13 15 -12 3 11 -17 34 -20 36 -20
18z"/>
<path d="M1830 248 c0 -9 5 -20 10 -23 13 -8 13 5 0 25 -8 13 -10 13 -10 -2z"/>
<path d="M2370 240 c0 -11 4 -20 9 -20 5 0 7 9 4 20 -3 11 -7 20 -9 20 -2 0
-4 -9 -4 -20z"/>
<path d="M480 238 c0 -9 5 -20 11 -23 17 -11 18 -2 3 19 -12 17 -14 17 -14 4z"/>
<path d="M2631 224 c0 -11 3 -14 6 -6 3 7 2 16 -1 19 -3 4 -6 -2 -5 -13z"/>
<path d="M2820 230 c0 -5 5 -10 11 -10 5 0 7 5 4 10 -3 6 -8 10 -11 10 -2 0
-4 -4 -4 -10z"/>
<path d="M3010 231 c0 -6 4 -13 10 -16 6 -3 7 1 4 9 -7 18 -14 21 -14 7z"/>
<path d="M1685 220 c3 -5 8 -10 11 -10 2 0 4 5 4 10 0 6 -5 10 -11 10 -5 0 -7
-4 -4 -10z"/>
<path d="M2142 205 c0 -16 2 -22 5 -12 2 9 2 23 0 30 -3 6 -5 -1 -5 -18z"/>
</g>
</svg>
